<?xml version="1.0" encoding="utf-8"?>
<!-- Generator: Adobe Illustrator 16.0.0, SVG Export Plug-In . SVG Version: 6.00 Build 0)  -->
<!DOCTYPE svg PUBLIC "-//W3C//DTD SVG 1.1//EN" "http://www.w3.org/Graphics/SVG/1.1/DTD/svg11.dtd">
<svg version="1.1" id="图层_1" xmlns="http://www.w3.org/2000/svg" xmlns:xlink="http://www.w3.org/1999/xlink" x="0px" y="0px"
	 viewBox="0 0 64 64" enable-background="new 0 0 64 64" xml:space="preserve">
<rect x="6.034" y="2.167" display="none" opacity="0" fill-rule="evenodd" clip-rule="evenodd" fill="#FFFFFF" width="52.932" height="60.832"/>
<polygon fill-rule="evenodd" clip-rule="evenodd" fill="#FFFA00" points="58.768,47.65 52.741,44.175 32.686,55.753 32.684,62.71 
	"/>
<polygon fill-rule="evenodd" clip-rule="evenodd" fill="#FFFA00" points="58.833,17.662 52.81,21.142 52.81,44.296 58.833,47.777 
	"/>
<polygon fill-rule="evenodd" clip-rule="evenodd" fill="#FFFA00" points="6.736,17.743 12.762,21.219 32.818,9.64 32.821,2.683 "/>
<polygon fill-rule="evenodd" clip-rule="evenodd" fill="#FFFA00" points="32.817,2.683 32.82,9.64 52.875,21.219 58.901,17.743 "/>
<polygon fill-rule="evenodd" clip-rule="evenodd" fill="#FFFA00" points="42.234,27.389 32.73,32.787 23.226,27.389 "/>
<polygon fill-rule="evenodd" clip-rule="evenodd" fill="#FFFA00" points="32.731,62.71 32.728,55.753 12.673,44.175 6.647,47.65 "/>
<polygon fill-rule="evenodd" clip-rule="evenodd" fill="#FFFA00" points="6.67,47.777 12.695,44.296 12.695,21.142 6.67,17.662 "/>
<polygon fill-rule="evenodd" clip-rule="evenodd" fill="#FFFA00" points="23.32,27.491 32.748,33.02 32.822,43.948 "/>
<rect x="6.034" y="2.167" fill="none" width="52.932" height="60.832"/>
</svg>
